<svg width="118" height="75" viewBox="0 0 118 75" fill="none" xmlns="http://www.w3.org/2000/svg">
<path d="M2.97395 51.9885C2.73568 51.9885 2.50715 51.969 2.28621 51.9289C2.06527 51.8888 1.86924 51.826 1.70028 51.7415C1.53024 51.657 1.39703 51.5466 1.30064 51.4101C1.20316 51.2747 1.15551 51.1047 1.15551 50.9C1.15551 50.652 1.24323 50.4224 1.41977 50.2123C1.59522 50.0032 1.8335 49.8159 2.1335 49.6512C2.43242 49.4877 2.77575 49.3512 3.16131 49.244C3.54688 49.1368 3.94761 49.0599 4.36783 49.0144L4.4014 51.7502C3.99418 51.9083 3.51764 51.9885 2.97395 51.9885ZM22.9475 50.7473C22.6692 50.8274 22.3833 50.8675 22.0898 50.8675C21.6132 50.8675 21.2482 50.7592 20.9926 50.5437C20.7392 50.3292 20.6103 50.0119 20.6103 49.5917C20.6103 49.1162 20.7533 48.7166 21.036 48.3938C21.3186 48.0711 21.6706 47.9097 22.0898 47.9097C22.5425 47.9097 22.8912 48.1079 23.1338 48.5054C23.3786 48.9018 23.54 49.5408 23.6179 50.4245C23.449 50.561 23.2248 50.6682 22.9475 50.7473ZM24.1541 47.8425C23.6948 46.936 23.0244 46.4822 22.1407 46.4822C21.7778 46.4822 21.4388 46.5656 21.1215 46.7292C20.8031 46.8938 20.528 47.1202 20.2973 47.4093C20.0645 47.6974 19.8814 48.0375 19.745 48.4285C19.6085 48.8195 19.5413 49.2354 19.5413 49.6772C19.5413 50.4592 19.7525 51.0679 20.1782 51.5033C20.6027 51.9408 21.1887 52.1585 21.936 52.1585C22.276 52.1585 22.5966 52.1065 22.8966 52.0047C23.1966 51.9029 23.4609 51.7621 23.6873 51.5802V52.7704C23.6873 52.9968 23.3125 53.1668 22.5652 53.2795C21.8168 53.3932 9.05202 53.4495 7.58015 53.4495H7.18917C6.63249 53.4495 6.23067 53.3455 5.98157 53.1354C5.73247 52.9264 5.61442 52.5776 5.62525 52.0903L5.6924 46.3295L4.3505 46.5678V47.6043C2.97936 47.888 1.91147 48.3353 1.14793 48.9473C0.383293 49.5581 0.000976562 50.3 0.000976562 51.1729C0.000976562 51.5347 0.0746239 51.8607 0.221919 52.1498C0.36813 52.4379 0.567411 52.6794 0.816512 52.8722C1.06561 53.065 1.35695 53.2123 1.69162 53.313C2.0252 53.4159 2.38477 53.4668 2.77033 53.4668C3.41583 53.4668 3.97685 53.3304 4.45231 53.0585C4.64509 54.3387 5.55702 54.9788 7.18917 54.9788H7.58015C8.18016 54.9788 20.3612 54.9701 20.815 54.9528C21.2677 54.9365 21.6706 54.9051 22.0215 54.8596C22.3724 54.8152 22.6757 54.7611 22.9302 54.6983C23.1858 54.6365 23.4197 54.5542 23.6353 54.4513C24.0772 54.2477 24.388 53.9499 24.571 53.56C24.7519 53.169 24.8418 52.6004 24.8418 51.852C24.8418 50.0855 24.6133 48.7491 24.1541 47.8425Z" fill="white"/>
<path d="M44.8897 45.8539L43.837 44.7828L42.7832 45.8539L43.837 46.925L44.8897 45.8539Z" fill="white"/>
<path d="M47.3702 45.8539L46.3175 44.7828L45.2637 45.8539L46.3175 46.925L47.3702 45.8539Z" fill="white"/>
<path d="M64.7188 45.5824L63.665 44.5113L62.6123 45.5824L63.665 46.6536L64.7188 45.5824Z" fill="white"/>
<path d="M64.9053 48.8445L65.9591 47.7733L64.9053 46.7033L63.8525 47.7733L64.9053 48.8445Z" fill="white"/>
<path d="M63.4786 47.7748L62.4248 46.7037L61.3721 47.7748L62.4248 48.8459L63.4786 47.7748Z" fill="white"/>
<path d="M45.077 53.0423C44.0341 52.7022 43.5131 52.1412 43.5131 51.3603C43.5131 51.1329 43.5521 50.9238 43.6333 50.731C43.7113 50.5383 43.8218 50.3682 43.9637 50.2209C44.1055 50.0736 44.2723 49.961 44.464 49.8808C44.6568 49.8029 44.8615 49.7617 45.077 49.7617C45.2915 49.7617 45.4962 49.8029 45.6879 49.8808C45.8817 49.961 46.0474 50.0736 46.1893 50.2209C46.3312 50.3682 46.4406 50.5383 46.5207 50.731C46.5998 50.9238 46.6399 51.1329 46.6399 51.3603C46.6399 52.1412 46.1178 52.7022 45.077 53.0423ZM79.5331 44.2577L79.5841 52.5831C79.5841 52.7423 79.5245 52.8776 79.4053 52.9914C79.2862 53.1051 79.1346 53.195 78.9461 53.2632C78.7599 53.3304 78.5476 53.3791 78.3104 53.4073C78.0721 53.4354 66.2008 53.4495 65.942 53.4495C64.5936 53.4495 63.9199 53.0986 63.9199 52.3957C63.9199 52.3058 63.9427 52.0621 63.9871 51.6657C64.0336 51.2693 64.0835 50.8328 64.1409 50.3574L62.9852 50.2209C62.9625 50.3682 62.9408 50.5383 62.9181 50.731C62.8943 50.9238 62.8661 51.1166 62.8325 51.3094C62.7979 51.5022 62.7643 51.6917 62.7307 51.878C62.6961 52.0654 62.6679 52.2213 62.6452 52.3459C62.5542 52.7423 62.3311 53.0249 61.9748 53.195C61.6174 53.365 49.4276 53.4495 48.6814 53.4495H48.6793C48.3403 53.4495 48.0153 53.4441 47.7099 53.4332C47.4045 53.4213 47.1207 53.404 46.8608 53.3823C47.4489 52.8267 47.7446 52.1358 47.7446 51.3094C47.7446 50.8892 47.6731 50.496 47.5312 50.1278C47.3893 49.7595 47.1976 49.439 46.954 49.1682C46.7113 48.8964 46.4276 48.6808 46.1048 48.5227C45.7821 48.3635 45.4388 48.2844 45.077 48.2844C44.7142 48.2844 44.372 48.3635 44.0481 48.5227C43.7254 48.6808 43.4427 48.8964 43.199 49.1682C42.9553 49.439 42.7626 49.7595 42.6207 50.1278C42.4788 50.496 42.4095 50.8892 42.4095 51.3094C42.4095 52.1477 42.703 52.8376 43.2932 53.3823C43.0203 53.404 42.7322 53.4213 42.4257 53.4332C42.1203 53.4441 30.1483 53.4495 29.819 53.4495C29.2645 53.4495 28.8649 53.3455 28.6212 53.1354C28.3775 52.9264 28.2562 52.5776 28.2562 52.0903L28.3233 44.0194L26.9814 44.2577L27.0497 52.6004C27.0724 54.186 27.9952 54.9788 29.819 54.9788C30.4537 54.9788 42.7322 54.9279 43.3431 54.826C43.955 54.7242 44.5333 54.5769 45.077 54.3842C45.6207 54.5769 46.198 54.7242 46.8099 54.826C47.4218 54.9279 48.0446 54.9788 48.6793 54.9788C49.3941 54.9788 61.6618 54.8802 62.1784 54.6809C62.6928 54.4838 63.0643 54.2033 63.2917 53.8405C63.7336 54.5997 64.6163 54.9788 65.9409 54.9788C66.3633 54.9788 78.397 54.9365 78.7772 54.851C79.1562 54.7665 79.4963 54.6246 79.7963 54.4275C80.0963 54.2293 80.34 53.9683 80.5263 53.6455C80.7148 53.3228 80.8068 52.9231 80.8068 52.4466L80.8761 44.0194L79.5331 44.2577Z" fill="white"/>
<path d="M83.1021 54.9788L83.0176 44.2566L84.3595 44.0194L84.275 54.9788H83.1021Z" fill="white"/>
<path d="M93.467 46.9244L92.4131 45.8532L93.467 44.7832L94.5208 45.8532L93.467 46.9244ZM94.0106 52.5833C94.0106 52.1858 93.9684 51.8208 93.8839 51.4862C93.7984 51.1526 93.676 50.8634 93.5179 50.6197C93.3597 50.376 93.1724 50.1876 92.9579 50.0511C92.7413 49.9158 92.5041 49.8475 92.2431 49.8475C92.0059 49.8475 91.7763 49.9071 91.5554 50.0262C91.3355 50.1443 91.1449 50.3057 90.9857 50.5103C90.8276 50.7129 90.6998 50.9511 90.6034 51.223C90.507 51.4948 90.4593 51.784 90.4593 52.0905C90.4593 52.5768 90.6131 52.9472 90.9185 53.2028C91.224 53.4573 91.6658 53.5851 92.2431 53.5851C92.4814 53.5851 92.7077 53.5591 92.9233 53.5082C93.1388 53.4573 93.3251 53.3848 93.4843 53.2873C93.6424 53.192 93.7702 53.0837 93.8666 52.9645C93.963 52.8465 94.0106 52.7187 94.0106 52.5833ZM90.9857 46.9244L89.933 45.8532L90.9857 44.7832L92.0395 45.8532L90.9857 46.9244ZM95.1663 52.4306C95.1663 53.245 94.9052 53.8938 94.3854 54.3758C93.8623 54.8566 93.1496 55.0981 92.2431 55.0981C91.2814 55.0981 90.5503 54.862 90.0521 54.392C89.5528 53.922 89.3037 53.245 89.3037 52.3624C89.3037 51.8068 89.3828 51.2826 89.5409 50.7898C89.7001 50.297 89.9124 49.8649 90.1788 49.4901C90.4442 49.1165 90.7572 48.8219 91.1135 48.6063C91.4698 48.3919 91.8467 48.2836 92.2431 48.2836C92.6514 48.2836 93.0337 48.3919 93.3901 48.6063C93.7475 48.8219 94.0561 49.1165 94.3161 49.4901C94.5771 49.8649 94.7839 50.3035 94.9366 50.8071C95.0894 51.3118 95.1663 51.8522 95.1663 52.4306Z" fill="white"/>
<path d="M94.6875 57.0355C95.3005 56.8092 95.8659 56.5493 96.3868 56.2547C96.9078 55.959 97.3583 55.6503 97.7384 55.3287C98.1175 55.0059 98.4154 54.6821 98.6298 54.3593C98.8453 54.0366 98.9525 53.7279 98.9525 53.4333C98.9525 53.2525 98.9125 53.0196 98.8334 52.7369C98.7543 52.4542 98.6439 52.1445 98.5031 51.8109C98.3612 51.4773 98.1933 51.1286 98.0016 50.7658C97.8078 50.403 97.6042 50.052 97.3897 49.712L98.6125 49.0318C99.089 49.6665 99.4627 50.3694 99.7345 51.1394C100.006 51.9095 100.143 52.6286 100.143 53.2969C100.143 54.3626 99.7345 55.3395 98.9201 56.2287C98.1034 57.1179 96.9532 57.8348 95.4695 58.3774L94.6875 57.0355Z" fill="white"/>
<path d="M102.489 54.9788L102.404 44.2566L103.746 44.0194L103.662 54.9788H102.489Z" fill="white"/>
<path d="M107.706 47.6553L106.652 46.5841L107.706 45.5141L108.759 46.5841L107.706 47.6553ZM104.596 57.0345C105.208 56.8081 105.775 56.5482 106.295 56.2536C106.816 55.9579 107.267 55.6503 107.647 55.3276C108.026 55.0048 108.324 54.681 108.538 54.3582C108.754 54.0355 108.861 53.7279 108.861 53.4333C108.861 53.2514 108.821 53.0185 108.742 52.7358C108.663 52.4532 108.552 52.1445 108.411 51.8098C108.269 51.4763 108.102 51.1275 107.91 50.7647C107.717 50.4019 107.513 50.051 107.298 49.7109L108.521 49.0318C108.997 49.6665 109.371 50.3683 109.643 51.1383C109.915 51.9095 110.051 52.6286 110.051 53.2969C110.051 54.3615 109.643 55.3384 108.827 56.2276C108.012 57.1168 106.861 57.8338 105.378 58.3774L104.596 57.0345Z" fill="white"/>
<path d="M114.979 53.4669C115.295 53.4669 115.605 53.4214 115.905 53.3304C116.205 53.2405 116.44 53.1268 116.611 52.9914C116.564 52.0968 116.397 51.4048 116.109 50.9185C115.819 50.4311 115.42 50.1874 114.911 50.1874C114.47 50.1874 114.109 50.352 113.832 50.6802C113.553 51.0084 113.415 51.4394 113.415 51.9712C113.415 52.4477 113.553 52.816 113.832 53.0759C114.109 53.3369 114.492 53.4669 114.979 53.4669ZM112.276 56.9836C114.725 56.6446 116.134 55.7554 116.509 54.3171C116.28 54.486 116.017 54.6171 115.717 54.707C115.418 54.798 115.098 54.8435 114.758 54.8435C114.01 54.8435 113.409 54.5824 112.957 54.0615C112.503 53.5405 112.276 52.855 112.276 52.0059C112.276 51.5293 112.346 51.0907 112.481 50.6889C112.616 50.286 112.804 49.9383 113.042 49.6437C113.279 49.3491 113.563 49.1195 113.891 48.956C114.219 48.7914 114.577 48.7091 114.961 48.7091C115.845 48.7091 116.534 49.1087 117.026 49.9069C117.519 50.7051 117.765 51.8304 117.765 53.2795C117.765 53.9597 117.649 54.5879 117.418 55.1662C117.185 55.7435 116.857 56.2536 116.432 56.6955C116.007 57.1363 115.495 57.5023 114.894 57.7915C114.293 58.0807 113.625 58.2756 112.888 58.3774L112.276 56.9836Z" fill="white"/>
<path d="M0.464628 61.0209H1.84443L4.88563 66.2195L7.92792 61.0209H9.27523L9.73986 71.0142H8.33081L8.00157 63.3429L5.18564 68.0629H4.46541L1.69389 63.4025L1.34948 71.0142H0L0.464628 61.0209Z" fill="white"/>
<path d="M11.5252 64.0469H12.8724V71.0142H11.5252V64.0469ZM12.1901 60.9765L13.2602 62.0465L12.1901 63.1166L11.1201 62.0465L12.1901 60.9765Z" fill="white"/>
<path d="M14.7886 71.0146V64.7665V64.4904C14.7886 64.3951 14.7832 64.2478 14.7734 64.0474H16.0623L16.1078 65.0958C16.1976 64.9766 16.307 64.8434 16.437 64.6994C16.5659 64.5543 16.7262 64.4221 16.9168 64.3019C17.1052 64.1828 17.3273 64.0821 17.5829 64.003C17.8374 63.9228 18.1255 63.8828 18.445 63.8828C19.3526 63.8828 20.0284 64.147 20.4681 64.6766C20.9057 65.2063 21.1266 65.9254 21.1266 66.8341V71.0146H19.7771V66.9391C19.7771 66.2904 19.6385 65.8128 19.3591 65.5084C19.0786 65.203 18.6843 65.0514 18.1742 65.0514C17.7843 65.0514 17.4605 65.1315 17.2006 65.2907C16.9417 65.451 16.7338 65.659 16.58 65.9124C16.4229 66.168 16.3114 66.4572 16.2421 66.781C16.1727 67.107 16.1381 67.4395 16.1381 67.7774V71.0146H14.7886Z" fill="white"/>
<path d="M22.7645 64.0469H24.1118V71.0142H22.7645V64.0469ZM23.4284 60.9765L24.4996 62.0465L23.4284 63.1166L22.3594 62.0465L23.4284 60.9765Z" fill="white"/>
<path d="M26.3594 69.2614C26.6085 69.5105 26.9095 69.7109 27.2594 69.8614C27.6081 70.0098 28.0132 70.0856 28.4724 70.0856C28.9208 70.0856 29.2966 70.013 29.5966 69.8679C29.8966 69.7239 30.0461 69.4964 30.0461 69.1856C30.0461 69.0264 30.0146 68.8888 29.9497 68.774C29.8825 68.6603 29.7742 68.5574 29.6183 68.4675C29.4634 68.3776 29.2587 68.2942 29.0052 68.2206C28.7496 68.1448 28.4323 68.0625 28.0532 67.9726C27.7836 67.913 27.5161 67.8329 27.2518 67.7332C26.9854 67.6336 26.7493 67.5004 26.5402 67.3357C26.329 67.1711 26.159 66.9718 26.0301 66.7368C25.9012 66.5029 25.8362 66.2202 25.8362 65.8909C25.8362 65.5509 25.9121 65.253 26.068 64.9985C26.2218 64.744 26.4298 64.5296 26.6886 64.3552C26.9496 64.1797 27.241 64.0476 27.567 63.9577C27.8897 63.8667 28.2265 63.8223 28.5764 63.8223C29.1666 63.8223 29.6735 63.8992 30.098 64.0552C30.5226 64.2101 30.8952 64.4267 31.2147 64.7072L30.4804 65.6353C30.2713 65.4458 30.0081 65.2866 29.6941 65.1556C29.3778 65.0267 29.0128 64.9606 28.5926 64.9606C28.1626 64.9606 27.8171 65.031 27.5583 65.1707C27.2973 65.3115 27.1684 65.54 27.1684 65.8606C27.1684 66.1595 27.3417 66.3826 27.6861 66.5278C28.0305 66.6718 28.4821 66.8094 29.041 66.9393C29.3702 67.0195 29.6789 67.1115 29.9627 67.2155C30.2486 67.3217 30.4977 67.4559 30.7121 67.6206C30.9277 67.7852 31.0966 67.9877 31.2222 68.2282C31.3457 68.4675 31.4085 68.7567 31.4085 69.0968C31.4085 69.4466 31.3284 69.7531 31.1692 70.0184C31.01 70.2827 30.7944 70.5047 30.5258 70.6856C30.2551 70.8654 29.9453 70.9997 29.5966 71.0896C29.2468 71.1795 28.8818 71.2239 28.5027 71.2239C27.1836 71.2239 26.1958 70.8697 25.5352 70.1603L26.3594 69.2614Z" fill="white"/>
<path d="M33.5807 65.1712H32.3232V64.047H33.5807V61.7705H34.928V64.047H36.9663V65.1712H34.928V68.6023C34.928 69.1612 35.0157 69.5467 35.1912 69.7569C35.3666 69.9659 35.6135 70.0709 35.933 70.0709C36.1919 70.0709 36.4074 70.0309 36.5764 69.9507C36.7464 69.8706 36.9175 69.7504 37.0865 69.5912L37.7017 70.4154C37.4103 70.6948 37.1136 70.8973 36.8092 71.0219C36.5038 71.1464 36.1432 71.2092 35.724 71.2092C34.9832 71.2092 34.4428 71.0099 34.0984 70.6103C33.7518 70.2107 33.5807 69.5857 33.5807 68.7377V65.1712Z" fill="white"/>
<path d="M38.8531 71.0146V64.7221V64.4817C38.8531 64.3918 38.8476 64.2478 38.8379 64.0474H40.1267L40.1722 65.1716C40.2524 65.0514 40.3574 64.9192 40.4863 64.7741C40.6152 64.6301 40.7733 64.4969 40.9585 64.3766C41.1426 64.2575 41.3581 64.1546 41.6029 64.0701C41.8466 63.9857 42.1293 63.9423 42.4488 63.9423C42.5993 63.9423 42.7358 63.9521 42.8614 63.9716C42.986 63.9932 43.1029 64.0225 43.2134 64.0626L42.9123 65.3211C42.7336 65.2517 42.5029 65.216 42.2246 65.216C41.9343 65.216 41.6679 65.2712 41.422 65.3806C41.1773 65.4911 40.9661 65.6438 40.7874 65.8388C40.6065 66.0326 40.4635 66.2601 40.3585 66.52C40.2534 66.7788 40.2025 67.0539 40.2025 67.3442V71.0146H38.8531Z" fill="white"/>
<path d="M44.5771 72.7228C44.6757 72.8127 44.7927 72.8928 44.9215 72.9621C45.0515 73.0325 45.2107 73.0672 45.4013 73.0672C45.5616 73.0672 45.6981 73.0325 45.8118 72.9621C45.9288 72.8928 46.0327 72.7845 46.1281 72.6405C46.2223 72.4954 46.3133 72.3199 46.3967 72.1163C46.4822 71.9116 46.5797 71.6744 46.6902 71.4036L46.8689 70.9542L43.7529 64.0476H45.2974L47.5425 69.3069L49.5223 64.0476H50.9899L48.2032 70.835C48.0743 71.1545 47.94 71.5065 47.8057 71.891C47.6703 72.2755 47.5024 72.6405 47.3032 72.9849C47.1028 73.3293 46.8591 73.6163 46.5699 73.847C46.2786 74.0755 45.9147 74.1914 45.4761 74.1914C45.1252 74.1914 44.8327 74.1438 44.5923 74.0484C44.3529 73.9531 44.1428 73.8264 43.962 73.6672L44.5771 72.7228Z" fill="white"/>
<path d="M57.6298 70.0555C57.9894 70.0555 58.3154 69.9829 58.6046 69.8378C58.8938 69.6938 59.1396 69.5042 59.3389 69.2692C59.5393 69.0342 59.6909 68.7645 59.7959 68.4602C59.901 68.1558 59.9541 67.8439 59.9541 67.5233C59.9541 67.2136 59.901 66.9071 59.7959 66.6017C59.6909 66.2973 59.5349 66.0255 59.3313 65.785C59.1255 65.5468 58.8819 65.354 58.597 65.2089C58.3132 65.0637 57.9894 64.9912 57.6298 64.9912C57.2703 64.9912 56.9464 65.0637 56.6573 65.2089C56.3659 65.354 56.1222 65.5435 55.9219 65.7786C55.7226 66.0125 55.571 66.2822 55.4659 66.5876C55.3609 66.8919 55.3078 67.2038 55.3078 67.5233C55.3078 67.8439 55.3609 68.1526 55.4659 68.4526C55.571 68.7526 55.7248 69.0223 55.9305 69.2616C56.1342 69.501 56.3789 69.6938 56.6648 69.8378C56.9486 69.9829 57.2703 70.0555 57.6298 70.0555ZM57.6298 71.2241C57.0916 71.2241 56.5966 71.1266 56.1472 70.9317C55.6977 70.7378 55.31 70.4703 54.9861 70.1313C54.6612 69.7912 54.4078 69.3992 54.2226 68.9541C54.0363 68.51 53.9453 68.0335 53.9453 67.5233C53.9453 67.0143 54.0363 66.5367 54.2226 66.0926C54.4078 65.6475 54.6612 65.2565 54.9861 64.9164C55.31 64.5774 55.6977 64.3099 56.1472 64.115C56.5966 63.92 57.0916 63.8226 57.6298 63.8226C58.1595 63.8226 58.6501 63.92 59.0985 64.115C59.5479 64.3099 59.9389 64.5774 60.2682 64.9164C60.5974 65.2565 60.8541 65.6475 61.0393 66.0926C61.2234 66.5367 61.3165 67.0143 61.3165 67.5233C61.3165 68.0335 61.2234 68.51 61.0393 68.9541C60.8541 69.3992 60.5974 69.7912 60.2682 70.1313C59.9389 70.4703 59.5479 70.7378 59.0985 70.9317C58.6501 71.1266 58.1595 71.2241 57.6298 71.2241Z" fill="white"/>
<path d="M63.37 65.1714H62.1094V64.0471H63.37V63.4785C63.37 63.0096 63.4361 62.6024 63.5715 62.2569C63.7069 61.9125 63.8856 61.6298 64.1098 61.4099C64.335 61.1901 64.5917 61.0287 64.8831 60.9236C65.1722 60.8186 65.4777 60.7655 65.7972 60.7655C66.1665 60.7655 66.5271 60.824 66.8835 60.9377C67.2376 61.0536 67.5647 61.2507 67.8636 61.5301L67.19 62.3987C66.8206 62.0901 66.4253 61.9352 66.0062 61.9352C65.6163 61.9352 65.3033 62.0608 65.0693 62.3099C64.8354 62.559 64.7174 62.989 64.7174 63.5988V64.0471H66.7102V65.1714H64.7174V71.0144H63.37V65.1714Z" fill="white"/>
<path d="M79.6788 69.2616C79.5683 69.4414 79.3994 69.6461 79.1687 69.8757C78.9391 70.1053 78.6586 70.323 78.3293 70.5277C78.0001 70.7334 77.6199 70.9046 77.1911 71.0443C76.7611 71.184 76.2867 71.2544 75.7679 71.2544C75.0282 71.2544 74.3535 71.1244 73.7437 70.8656C73.135 70.6056 72.6119 70.2428 72.1722 69.7782C71.7325 69.3136 71.3892 68.7645 71.1455 68.1298C70.9007 67.4962 70.7783 66.8041 70.7783 66.0558C70.7783 65.3258 70.9007 64.6424 71.1455 64.0023C71.3892 63.3633 71.7325 62.8034 72.1722 62.3247C72.6119 61.8449 73.1394 61.468 73.7513 61.1929C74.3665 60.9178 75.0477 60.7813 75.7983 60.7813C76.3268 60.7813 76.8012 60.8463 77.2214 60.9763C77.6405 61.1051 78.0077 61.2687 78.3218 61.4625C78.638 61.6575 78.9066 61.8698 79.1308 62.0994C79.355 62.3301 79.538 62.5488 79.6788 62.759L78.6586 63.6276C78.5384 63.4575 78.3976 63.281 78.2329 63.0958C78.0672 62.9106 77.8712 62.7438 77.6405 62.5943C77.4098 62.4449 77.1456 62.3192 76.8466 62.2185C76.5456 62.12 76.2011 62.0701 75.8134 62.0701C75.2632 62.0701 74.7715 62.1741 74.3361 62.3842C73.9018 62.5943 73.5325 62.8792 73.2282 63.2387C72.9238 63.5983 72.6921 64.0175 72.5318 64.4962C72.3715 64.976 72.2924 65.4861 72.2924 66.0254C72.2924 66.5648 72.3737 67.0717 72.5394 67.546C72.7029 68.0204 72.9347 68.4331 73.2358 68.7818C73.5347 69.1327 73.9008 69.4056 74.3286 69.606C74.7585 69.8064 75.2383 69.906 75.7679 69.906C76.2163 69.906 76.6051 69.8486 76.929 69.7338C77.2539 69.619 77.5279 69.4814 77.7532 69.3222C77.9773 69.1619 78.1615 68.9995 78.3066 68.8349C78.4506 68.6702 78.5752 68.5327 78.6737 68.4222L79.6788 69.2616Z" fill="white"/>
<path d="M81.084 64.0473H82.4335V68.138C82.4335 68.7965 82.5688 69.2741 82.8374 69.5687C83.1071 69.8633 83.497 70.0106 84.005 70.0106C84.3959 70.0106 84.7176 69.9305 84.9721 69.7713C85.2277 69.611 85.4357 69.4041 85.5949 69.1496C85.7541 68.894 85.8667 68.6048 85.9317 68.281C85.9967 67.9561 86.0292 67.6236 86.0292 67.2835V64.0473H87.3787V70.3106V70.5868C87.3787 70.733 87.3819 70.8749 87.3938 71.0146H86.105L86.0595 69.9814C85.9696 70.1005 85.8591 70.2305 85.7303 70.3702C85.5992 70.5099 85.4389 70.6377 85.2505 70.7525C85.0599 70.8673 84.8411 70.9648 84.5898 71.0438C84.3407 71.124 84.057 71.1641 83.7375 71.1641C82.8277 71.1641 82.1595 70.902 81.7295 70.3778C81.2984 69.8536 81.084 69.1366 81.084 68.2279V64.0473Z" fill="white"/>
<path d="M89.2373 61.0209H90.5868V71.0142H89.2373V61.0209Z" fill="white"/>
<path d="M93.0279 65.1712H91.7705V64.047H93.0279V61.7705H94.3752V64.047H96.4135V65.1712H94.3752V68.6023C94.3752 69.1612 94.463 69.5467 94.6384 69.7569C94.8139 69.9659 95.0608 70.0709 95.3803 70.0709C95.6392 70.0709 95.8547 70.0309 96.0236 69.9507C96.1937 69.8706 96.3648 69.7504 96.5338 69.5912L97.1489 70.4154C96.8576 70.6948 96.5608 70.8973 96.2565 71.0219C95.9511 71.1464 95.5893 71.2092 95.1713 71.2092C94.4305 71.2092 93.89 71.0099 93.5456 70.6103C93.199 70.2107 93.0279 69.5857 93.0279 68.7377V65.1712Z" fill="white"/>
<path d="M97.9873 64.0473H99.3368V68.138C99.3368 68.7965 99.4722 69.2741 99.7408 69.5687C100.01 69.8633 100.401 70.0106 100.909 70.0106C101.299 70.0106 101.621 69.9305 101.875 69.7713C102.131 69.611 102.339 69.4041 102.498 69.1496C102.658 68.894 102.77 68.6048 102.835 68.281C102.9 67.9561 102.933 67.6236 102.933 67.2835V64.0473H104.282V70.3106V70.5868C104.282 70.733 104.286 70.8749 104.297 71.0146H103.008L102.963 69.9814C102.873 70.1005 102.762 70.2305 102.634 70.3702C102.503 70.5099 102.342 70.6377 102.154 70.7525C101.963 70.8673 101.744 70.9648 101.493 71.0438C101.244 71.124 100.96 71.1641 100.641 71.1641C99.731 71.1641 99.0628 70.902 98.6328 70.3778C98.2028 69.8536 97.9873 69.1366 97.9873 68.2279V64.0473Z" fill="white"/>
<path d="M106.153 71.0146V64.7221V64.4817C106.153 64.3918 106.147 64.2478 106.138 64.0474H107.427L107.472 65.1716C107.552 65.0514 107.656 64.9192 107.786 64.7741C107.915 64.6301 108.073 64.4969 108.258 64.3766C108.442 64.2575 108.658 64.1546 108.904 64.0701C109.147 63.9857 109.429 63.9423 109.749 63.9423C109.899 63.9423 110.036 63.9521 110.161 63.9716C110.285 63.9932 110.404 64.0225 110.513 64.0626L110.213 65.3211C110.033 65.2517 109.804 65.216 109.523 65.216C109.234 65.216 108.968 65.2712 108.723 65.3806C108.477 65.4911 108.266 65.6438 108.087 65.8388C107.906 66.0326 107.763 66.2601 107.658 66.52C107.553 66.7788 107.502 67.0539 107.502 67.3442V71.0146H106.153Z" fill="white"/>
<path d="M116.371 66.9242C116.331 66.3848 116.14 65.9256 115.801 65.5455C115.464 65.1664 114.984 64.9758 114.363 64.9758C114.044 64.9758 113.756 65.031 113.503 65.1404C113.248 65.2509 113.031 65.396 112.85 65.5758C112.671 65.7556 112.53 65.9624 112.431 66.1974C112.33 66.4325 112.275 66.6751 112.265 66.9242H116.371ZM117.585 69.9957C117.505 70.0856 117.386 70.2004 117.226 70.3401C117.065 70.4809 116.859 70.6152 116.603 70.7452C116.348 70.8751 116.05 70.9867 115.705 71.082C115.361 71.1762 114.969 71.2239 114.529 71.2239C113.987 71.2239 113.495 71.134 113.045 70.9542C112.595 70.7744 112.21 70.5199 111.891 70.1906C111.57 69.8614 111.325 69.4661 111.15 69.0069C110.974 68.5477 110.888 68.0375 110.888 67.4776C110.888 66.9697 110.973 66.492 111.142 66.048C111.311 65.6039 111.552 65.2184 111.862 64.8945C112.17 64.5696 112.538 64.3119 112.962 64.1223C113.386 63.9328 113.855 63.8375 114.363 63.8375C114.962 63.8375 115.477 63.9523 115.907 64.1819C116.337 64.4115 116.689 64.7158 116.963 65.096C117.237 65.4761 117.441 65.9104 117.57 66.4C117.7 66.8884 117.764 67.3996 117.764 67.9282H112.265C112.275 68.2379 112.343 68.5228 112.467 68.7816C112.592 69.0415 112.76 69.2668 112.97 69.4563C113.179 69.6459 113.419 69.7964 113.69 69.9058C113.959 70.0163 114.243 70.0704 114.544 70.0704C115.132 70.0704 115.617 69.9708 115.996 69.7704C116.377 69.5711 116.651 69.3762 116.821 69.1867L117.585 69.9957Z" fill="white"/>
<path d="M93.2869 4.57697C92.557 14.5508 93.4505 24.4845 93.2122 34.5449C93.1689 36.3948 93.3974 38.3735 93.2631 40.232C93.2469 40.4508 93.184 40.6176 92.8483 40.6219C92.3912 40.5743 91.9331 40.5342 91.4717 40.6284C91.3234 39.2963 91.3808 38.2641 91.2595 37.1183C90.9952 34.6142 91.1436 32.5705 91.123 29.8434C91.0883 25.1711 90.6919 20.4111 91.0331 15.7475C91.1544 14.0851 91.1674 11.3601 91.0829 9.69546C90.9974 8.00373 90.9086 6.74957 91.0125 4.58997C91.8205 4.49033 92.5775 4.48924 93.2869 4.57697Z" fill="white"/>
<path d="M10.49 1.76887C11.3067 1.84901 11.6641 2.09162 11.7269 3.00571C11.8211 4.3736 11.6229 5.12416 11.7691 6.46497C12.2554 10.9271 11.2135 15.4499 11.6792 19.9143C11.9262 22.2742 11.6901 24.397 11.7734 26.7678C11.8991 30.291 11.7388 34.2874 11.6521 38.4236H0.665697C0.281215 37.8831 0.35053 35.1311 0.468582 34.4131C0.571472 33.787 0.566057 33.148 0.560642 32.5134C0.536815 29.9162 0.698189 27.605 0.674362 25.0079C0.660283 23.4818 0.646202 21.9493 0.397101 20.4439C0.176159 19.1107 0.519486 16.7788 0.321288 15.4424C0.0711037 13.7636 -0.0599456 3.74976 0.0266983 1.83168C0.0266983 1.83168 9.19796 1.64215 10.49 1.76887Z" fill="white"/>
<path d="M30.6391 4.10723C30.0087 3.87329 30.104 4.61734 30.1116 5.01049C30.1181 5.37223 30.1094 5.59967 30.1029 6.08596C30.09 7.04987 30.1723 9.6806 30.1831 10.6304C30.2026 12.2268 30.3033 13.6207 30.2752 14.8792C30.2232 17.2479 30.2123 19.6176 30.3098 21.9851C30.5513 27.8802 30.2665 33.7882 30.443 39.6475C30.4582 40.1565 30.7788 40.2984 31.2434 40.4175L31.9236 40.5312C31.9019 35.5113 32.2983 30.2499 31.981 25.244C31.8477 23.157 31.9268 21.0732 31.9203 18.9797C31.916 16.9728 31.9051 14.9648 31.942 12.9568C31.9636 11.7395 31.9506 10.5221 31.9127 9.30478C31.8651 7.79609 31.9452 4.8946 31.5402 4.49063C31.2932 4.24586 31.056 4.2621 30.6391 4.10723Z" fill="white"/>
<path d="M19.7867 36.4044C20.4539 36.3893 20.325 35.8932 20.3185 35.4968C20.3131 35.1319 20.4008 34.9023 20.4106 34.4127C20.4279 33.4412 20.3597 30.7878 20.3532 29.8303C20.3423 28.2209 20.2492 26.8151 20.2838 25.5458C20.3477 23.1577 20.3716 20.7685 20.2871 18.3814C20.0748 12.4366 20.3911 6.48088 20.2449 0.572853C20.2319 0.0594864 19.895 0.033493 19.3178 0.0161667L18.5206 0.0519066C18.5174 5.11299 18.5737 10.4979 18.6452 15.8861C18.6734 17.9959 18.6495 19.6367 18.643 21.7465C18.6376 23.7707 18.6831 25.3866 18.6788 27.4097C18.6766 28.4819 18.63 29.6668 18.617 31.1571C18.604 32.6788 18.5315 35.5553 18.8878 36.0124C19.1336 36.3275 19.3719 36.4131 19.7867 36.4044Z" fill="white"/>
<path d="M34.2445 39.5078C33.6347 39.4298 33.5513 39.1569 33.5708 38.4562C33.6315 36.3865 33.4993 31.9676 33.2795 29.26C33.0813 26.8091 33.1365 24.3083 33.443 21.8855C33.6553 20.209 33.3585 18.9591 33.3488 16.8808C33.3358 14.1461 33.5037 12.006 33.4917 10.1626C33.4831 9.02542 33.4473 7.8893 33.3943 6.75318C33.3444 5.69287 33.3585 3.35132 33.3672 3.09139C33.5437 3.03074 34.1708 3.04482 34.3365 3.06215C34.9235 3.12497 35.2051 3.19537 35.6254 3.39681C35.8777 4.48095 35.7954 6.76292 35.8019 8.03984C35.8062 8.78823 35.7521 11.8847 35.8019 12.6298C35.8842 13.8677 35.8398 15.1165 35.8485 16.3609C35.8582 17.9454 35.9546 19.5277 35.9503 21.1122C35.9459 23.1235 35.7824 25.1249 35.7326 27.1351C35.6427 30.838 36.1095 35.6186 36.0705 38.714C36.0629 39.3291 36.1344 39.6616 35.4781 39.6616C35.4781 39.6616 34.8542 39.5858 34.2445 39.5078Z" fill="white"/>
<path d="M89.8951 37.8123C90.0197 36.2754 89.6894 33.897 89.6861 32.6613C89.684 31.9367 89.6016 28.9399 89.6471 28.2186C89.724 27.0197 89.6677 25.811 89.6666 24.6066C89.6645 23.072 89.7522 21.5394 89.7359 20.0058C89.7143 18.0596 89.5258 16.1231 89.4576 14.179C89.3157 10.1317 89.9125 4.74677 89.6645 1.89402C88.6475 1.67307 87.3987 1.61676 86.0254 1.64817C85.6799 3.90524 85.7741 6.16556 85.8164 8.91326C85.8445 10.697 85.6853 12.77 85.7211 15.417C85.7482 17.4293 86.2626 19.8347 86.0536 21.4593C85.7503 23.8084 85.7124 26.229 85.9409 28.5988C86.268 31.9876 86.15 37.5502 86.1922 37.6227L89.8951 37.8123Z" fill="white"/>
<path d="M100.591 37.8935C100.754 33.7075 100.73 31.1732 100.799 27.559C100.847 25.0085 100.44 21.7734 100.489 19.0863C100.58 14.1574 100.634 12.47 100.243 7.89412C100.155 6.86305 100.303 4.92223 100.264 3.88792C100.238 3.19585 100.213 2.30233 100.186 1.61135C100.186 1.61135 103.564 2.33807 106.185 1.7868C110.36 0.908447 117.272 1.81171 117.272 1.81171C117.682 2.51353 117.739 4.14568 117.728 4.54858C117.65 7.57029 117.588 6.50781 117.692 9.52736C117.791 12.3747 117.26 14.8917 117.26 18.9152C117.26 21.5568 117.656 23.294 117.747 25.0539C117.84 26.8648 117.525 28.3832 117.642 31.2555C117.715 33.0263 117.675 37.6682 117.704 38.0949C117.704 38.0949 105.261 38.1664 102.608 37.848C101.207 37.6812 100.591 37.8935 100.591 37.8935Z" fill="white"/>
<path d="M77.8309 0.0988846C77.9002 6.35241 77.9554 13.285 78.2641 18.9331C78.367 20.8154 78.3118 23.1776 78.3865 25.3242C78.4201 26.2816 78.2533 28.191 78.1786 29.4614C78.1168 30.4903 78.1428 31.5214 78.1688 32.5525C78.1959 33.6442 78.2197 35.9272 78.1233 35.9771C77.4854 35.8752 76.8107 35.8709 76.0948 35.9771C75.8619 35.1377 76.0157 34.3503 76.0309 33.4795C76.1619 25.9751 75.6388 20.4949 75.7634 13.5861C75.8034 11.342 75.7309 8.27915 75.5554 6.04266C75.4038 4.10833 75.472 1.92924 75.706 0.00249481C76.4457 -0.0105019 77.1507 0.025238 77.8309 0.0988846Z" fill="white"/>
<path d="M98.7179 0.432312C98.9107 3.65763 98.7601 5.78149 98.823 8.55626C98.8771 10.992 99.1468 13.0693 98.9984 15.8658C98.8706 18.2788 99.1175 20.6972 99.1695 23.1135C99.2193 25.4659 99.2627 27.8183 99.2908 30.1707C99.332 31.9934 99.3731 33.6418 99.3764 35.4668C99.3764 35.7722 99.3396 36.4253 99.3417 36.7307C99.3417 36.7307 98.7006 36.6094 98.0746 36.6646C96.4933 36.8065 95.276 36.617 94.8135 36.5314C94.4247 36.4415 94.7518 30.0819 94.7615 29.4992C94.8027 27.11 94.8124 24.7219 94.8016 22.3327C94.7897 19.9153 94.5633 17.3495 94.5178 14.9333C94.4713 12.491 94.6056 10.1982 94.5406 7.75589C94.4756 5.29087 94.4041 3.19409 94.3391 0.729069C94.3261 0.227619 94.7983 -0.034481 95.5922 0.183212C96.6493 0.473469 97.7572 0.126892 98.7179 0.432312Z" fill="white"/>
<path d="M15.9027 3.46256C16.6348 3.56221 17.185 4.25752 17.2002 5.08281C17.2196 6.26441 17.1958 7.31172 17.1687 8.33737C17.1384 9.4854 17.1027 10.6074 17.1178 11.8584C17.1796 16.9606 17.3994 21.8332 17.172 27.1174C16.9781 31.5937 17.3919 35.9616 17.3442 40.0642C15.9817 39.9862 14.368 39.8649 13.0488 39.8021C13.4225 32.2294 13.1853 25.0607 13.0976 17.1805C13.0477 12.7465 13.7777 9.28937 13.1571 3.38459C14.1124 3.28495 15.0189 3.34235 15.9027 3.46256Z" fill="white"/>
<path d="M40.0622 14.1248C40.5832 13.7771 42.7124 12.6984 42.967 12.7114C41.4344 12.1244 39.5954 12.2641 38.2405 13.124C36.9279 13.958 37.3676 16.2573 37.1965 17.7313C37.8539 16.4143 38.8275 14.9501 40.0622 14.1248ZM37.6838 34.4623C37.6189 35.9341 37.7066 37.1233 37.7326 38.84C39.1828 38.7392 40.0438 38.8681 41.4897 38.958C42.8781 39.0447 44.3522 38.893 45.7439 39.0771C43.6179 36.7735 40.9059 34.745 37.6838 34.4623ZM44.8374 23.3859C44.6262 24.1516 44.3706 25.4546 44.3327 25.7881C44.2937 26.1217 44.0208 27.9629 44.0208 27.9629C43.8962 27.8925 43.8312 27.7539 43.7749 27.6239C43.0254 25.9235 43.1738 23.2386 43.1738 23.2267C43.4327 18.9996 44.9381 17.8765 44.9457 17.8884C44.2688 17.5006 42.9063 19.0927 42.1915 20.0967C41.2352 21.4386 41.4019 22.3614 41.2796 24.4441C40.7684 24.3412 40.2604 23.4877 40.2268 22.8542C40.0546 19.5704 41.5059 16.5519 43.0883 15.3183C43.2659 15.1613 41.2666 15.5512 40.9157 15.6952C39.6192 16.2248 38.6943 17.1497 38.0575 18.3909C36.721 20.9956 37.5745 24.0932 37.3871 26.9362C37.2788 28.5759 37.5192 30.1907 37.503 31.8337C37.4911 33.0716 37.1781 33.3045 38.416 33.4161C38.9066 33.4605 39.3951 33.5363 39.8759 33.6402C42.7915 34.2695 45.1287 35.6114 47.18 37.7428C47.5071 33.9489 47.5526 30.4528 47.5515 26.6416C47.5515 25.1361 47.8006 21.9108 46.7966 20.6231C45.7785 19.318 45.0735 22.5303 44.8374 23.3859ZM74.4187 20.283C74.3256 17.5851 74.345 12.485 74.5497 9.77742C74.7772 6.76438 74.032 2.20149 72.3663 2.30113C70.9129 2.22207 69.3208 2.38345 67.8673 2.45709C66.7009 2.51666 65.2074 2.52208 64.042 2.6228C62.0427 2.79501 61.825 2.53183 59.8181 2.53399C57.3152 2.53724 55.1534 2.73761 52.6505 2.74085C50.2255 2.7441 47.5244 2.67912 45.106 2.49608C42.733 2.31521 40.2084 1.98489 37.8485 2.05528C37.5095 2.06503 37.3134 3.59538 37.2463 5.47122C37.1813 7.27991 37.0633 11.1941 37.2138 13.071C38.3153 11.7182 39.7037 11.1897 41.063 11.0641C42.1536 10.9644 43.4197 10.8995 44.6002 11.0868C44.7172 11.1052 43.8269 10.2659 43.1002 9.68428C42.6908 9.3572 42.2294 9.02579 41.7117 8.94997C41.0716 8.85575 40.4066 8.9164 39.759 8.88282C40.2247 8.47451 41.05 7.43046 43.0785 7.7088C44.1702 7.85934 45.9995 9.75685 46.6591 9.23807C47.3912 8.66297 47.1031 6.40156 48.0746 6.15679C48.8663 5.95751 49.3883 8.96947 49.7674 9.63338C50.6512 8.50376 51.979 7.68714 53.414 7.52143C54.1624 7.4337 56.4639 7.7088 56.7758 8.80809C56.778 8.79618 53.8429 8.27199 52.0212 10.9081C54.6097 9.88356 57.2188 10.2226 59.4076 11.9067C60.0141 12.3735 60.4084 12.8674 60.8199 13.4273C61.4048 14.2233 61.3365 14.5829 61.3225 15.0367C60.364 14.845 59.4759 13.1988 57.8199 12.6897C56.4271 12.2619 54.9411 12.3453 53.5592 12.7699C56.7076 13.2789 61.0528 17.4671 59.5528 20.8949C59.0665 22.004 58.9311 21.2621 58.76 20.3328C58.5553 19.2227 58.2477 18.5924 57.7192 17.8754C57.2556 17.2483 56.7693 16.6916 56.1986 16.1447C55.696 15.6638 54.1516 14.9804 53.4281 15.0205C55.4567 15.5901 56.7563 19.6223 56.9307 20.0523C57.352 21.0953 57.3477 22.2931 57.3737 23.4033C57.3888 24.0433 57.4419 26.2679 56.6285 26.4791C56.6404 26.4759 56.7628 21.0942 52.9505 18.0129C53.9458 19.7566 54.0249 21.8924 53.9101 23.8386C53.8451 24.9325 53.6718 25.8087 53.1931 26.8008C53.0891 27.0174 52.6862 28.0084 52.527 28.0441C52.018 28.1578 52.2877 25.03 52.2119 24.4776C52.1187 23.7942 50.8851 19.1707 49.5909 20.3057C48.9335 20.8819 49.2681 23.4823 49.3483 24.6379C49.4479 26.0589 49.618 28.1319 49.6439 29.5561C49.6981 32.5117 49.7782 34.5814 50.1606 37.5479C53.5483 35.7229 68.4576 28.0853 70.5858 34.3854C70.5923 34.5857 70.4666 34.4428 70.4666 34.4428L70.4656 34.4439C69.0078 32.2615 65.0297 33.3857 63.0402 33.9998C59.4997 35.0904 56.1119 36.8125 52.9028 38.6493C58.1762 38.6623 66.3045 38.6439 72.3262 38.6493C73.7136 38.6504 74.8227 37.5024 74.7761 36.1161C74.7414 35.0969 74.7133 33.8774 74.7133 32.5529C74.7133 31.0691 74.7913 29.4532 74.8313 27.9694C74.9115 25.0051 74.5227 23.2462 74.4187 20.283Z" fill="white"/>
<path d="M83.5818 2.97605C83.7789 3.00312 83.9262 3.16883 83.9305 3.36594C84.0291 7.46745 84.119 11.165 84.3843 15.4019C84.4883 17.0828 84.5739 19.5673 84.3291 21.5417C84.0074 24.1388 84.6703 26.2464 84.4851 28.8577C84.2425 32.3039 84.7515 35.1339 84.5565 38.5834L80.2752 38.6777C79.9222 38.6896 79.6016 38.3549 79.6514 37.5307C79.7012 36.7054 79.6308 33.1552 79.6308 30.492C79.6308 27.8277 79.9839 25.3497 79.6893 22.3832C79.5442 20.92 79.8918 19.3626 79.8074 17.895C79.6536 15.2329 79.568 12.9098 79.5128 10.2444C79.4803 8.6718 79.516 6.25443 79.4662 4.70892C79.4316 3.63237 79.6666 2.84066 80.2612 2.57423C80.9424 2.26773 82.8096 2.87207 83.5818 2.97605Z" fill="white"/>
<path d="M21.7795 34.4214C21.7373 35.4178 21.7156 35.7579 21.7156 36.1337C21.7156 36.3828 21.9387 36.4272 22.1402 36.5387C22.2745 36.6124 23.4268 36.855 23.8026 36.934C24.1308 37.0034 24.5976 37.0564 24.9312 37.051C26.0402 37.0315 27.1395 37.4149 28.2453 37.3109C28.2811 37.3077 28.3168 37.2947 28.3482 37.2752C28.4413 37.2178 28.7511 37.0716 28.8356 36.451C28.9623 35.5109 28.7045 34.6878 28.8486 32.9712C28.9937 31.2567 28.867 26.6083 28.8756 25.4916C28.945 17.0265 28.4652 16.8879 28.6785 10.3539C28.7543 8.0448 28.6959 7.28341 28.4446 4.87038C28.3774 4.23138 28.0861 2.61656 28.2301 1.49994C28.2821 1.09379 28.033 0.749378 27.6356 0.729885C25.8009 0.633495 21.9485 0.926998 21.9485 0.926998C21.7405 1.78152 21.6994 2.5884 21.7514 3.7386C21.7882 4.5368 21.6365 5.85163 21.6355 6.652C21.6344 7.55309 21.5737 8.45094 21.6149 9.35204C21.7254 11.7672 21.7893 14.1857 21.7167 16.602C21.5304 22.7234 22.0676 26.2747 21.8304 32.2921L21.7795 34.4214Z" fill="white"/>
<path d="M5.47176 44.1386L4.41796 43.0674L3.36523 44.1386L4.41796 45.2097L5.47176 44.1386Z" fill="white"/>
<path d="M2.99032 44.1386L1.9376 43.0674L0.883789 44.1386L1.9376 45.2097L2.99032 44.1386Z" fill="white"/>
<path d="M23.1759 44.0539L22.1231 42.9838L21.0693 44.0539L22.1231 45.125L23.1759 44.0539Z" fill="white"/>
</svg>
